<svg aria-hidden="true" style="position: absolute; width: 0; height: 0; overflow: hidden;" version="1.1" xmlns="http://www.w3.org/2000/svg" xmlns:xlink="http://www.w3.org/1999/xlink">
<defs>
<symbol id="icon-loadMore" viewBox="0 0 30 32">
<path fill="#fff" style="fill: var(--color1, #fff)" d="M29.176 13.171h-10.353v-10.352c0-0.519-0.421-0.942-0.941-0.942h-5.647c-0.52 0-0.941 0.423-0.941 0.942v10.352h-10.353c-0.52 0-0.941 0.423-0.941 0.943v5.646c0 0.519 0.421 0.941 0.941 0.941h10.353v10.354c0 0.519 0.422 0.942 0.941 0.942h5.647c0.52 0 0.941-0.423 0.941-0.942v-10.354h10.353c0.52 0 0.941-0.422 0.941-0.941v-5.646c0-0.52-0.422-0.943-0.941-0.943z"></path>
</symbol>
</defs>
</svg>
