<svg aria-hidden="true" style="position: absolute; width: 0; height: 0; overflow: hidden;" version="1.1" xmlns="http://www.w3.org/2000/svg" xmlns:xlink="http://www.w3.org/1999/xlink">
<defs>
<symbol id="icon-sayAbout" viewBox="0 0 45 32">
<path fill="#18cfab" style="fill: var(--color1, #18cfab)" d="M9.97 12.287c5.482 0 9.926 4.411 9.926 9.854 0 5.441-4.444 9.852-9.926 9.852s-9.926-4.411-9.926-9.852l-0.044-1.408c0-10.883 8.888-19.706 19.852-19.706v5.63c-3.788 0-7.348 1.465-10.027 4.124-0.516 0.511-0.986 1.057-1.41 1.63 0.507-0.078 1.026-0.122 1.555-0.122zM35.494 12.287c5.482 0 9.926 4.411 9.926 9.854 0 5.441-4.444 9.852-9.926 9.852s-9.926-4.411-9.926-9.852l-0.044-1.408c0-10.883 8.888-19.706 19.852-19.706v5.63c-3.787 0-7.348 1.465-10.027 4.124-0.516 0.511-0.986 1.057-1.41 1.63 0.507-0.078 1.026-0.122 1.556-0.122z"></path>
</symbol>
<symbol id="icon-next_right" viewBox="0 0 20 32">
<path  d="M3.673 1.2l-3.213 3.452 10.555 11.341-10.555 11.344 3.213 3.453 13.767-14.797-13.767-14.793z"></path>
</symbol>
<symbol id="icon-prev_left" viewBox="0 0 20 32">
<path  d="M16.019 30.788l3.212-3.451-10.555-11.346 10.555-11.339-3.212-3.454-13.768 14.793 13.768 14.797z"></path>
</symbol>
</defs>
</svg>
